# xmcd
# Track frame offsets:
# 150
# 20901
# 41605
# 67712
# 118369
# 157339
# 182069
# 200155
# 232093
# 266067
# 298244
#
# Disc length: 4270 seconds
# Revision: 0
# Processed by: cddbd v1.5.2PL0 Copyright (c) Steve Scherf et al.
# Submitted via: VisiTrax 2.10.0.248 - For more info visit www.synapsa.com
#
DISCID=b410ac0b
DTITLE=Davies, Debbie - LIVE 2005
DYEAR=2005
DGENRE=Blues
TTITLE0=Debbie Davies - Chicago Line
TTITLE1=Debbie Davies - Leading Me Home
TTITLE2=Debbie Davies - Takin' It All To Vagas
TTITLE3=Debbie Davies - Can't Go On This Way
TTITLE4=Debbie Davies - Can't Live Like This No More
TTITLE5=Debbie Davies - Just Stepped In The Blues
TTITLE6=Debbie Davies - Made Right In The USA
TTITLE7=Debbie Davies - Don't Take Advantage Of Me
TTITLE8=Debbie Davies - Blue And Lonesome
TTITLE9=Debbie Davies - Half Caf Decal
TTITLE10=Debbie Davies - Percolatin
EXTD=Debbie Davies - Guitar and Vocals\nA.J. Hager - Bass\nDon Castagno - D
EXTD=rums\nRoy Rodriques - Keyboards
EXTT0=
EXTT1=
EXTT2=
EXTT3=
EXTT4=
EXTT5=
EXTT6=
EXTT7=
EXTT8=
EXTT9=
EXTT10=
PLAYORDER=
